<svg id="Capa_1" data-name="Capa 1" xmlns="http://www.w3.org/2000/svg" viewBox="0 0 230.41 466.32"><path d="M33.86,494.37c-.25-4.27-.61-7.52-.62-10.77q0-113.28-.11-226.56c0-5.68,2-9.22,6.9-12Q107.49,207.15,174.78,169c5.17-2.92,6.2-2.3,6.2,3.78,0,52.38.09,104.77-.09,157.16,0,5.94,2,9.49,7.17,12.32,12.92,7.12,25.59,14.71,38.37,22.09,1.54.89,3.15,1.65,5.7,3v-6.52q0-77.6,0-155.19c0-9.64,0-19.29.54-28.91.4-7.27-2.11-11.79-8.59-15.67C182.25,136,140.67,110.48,99,85.15c-1.65-1-3.41-1.84-5.72-3.08,0,2.43,0,4.2,0,6,.1,26.78.09,53.55.39,80.33.06,5.87-1.83,9.7-7.22,12.26-5.24,2.48-10.13,5.68-15.21,8.48-6.53,3.62-7.74,2.94-7.73-4.34q.06-74.86.17-149.71c0-7.57,2-8.72,8.56-4.81q57.09,34,114.15,68.05c23.36,13.94,46.66,28,70.12,41.79,5.07,3,7.05,6.86,7,12.59q-.12,101.06-.07,202.1c0,18.12-.25,36.25-.48,54.37a85,85,0,0,1-1.07,8.59c-4.07-1.65-7.53-2.58-10.49-4.34-21.39-12.71-42.68-25.59-64-38.4-1.66-1-3.41-1.84-6.12-3.29,0,7.84,0,14.72,0,21.61-.11,20.74,1.1,16.52-14.89,25.79q-60.7,35.2-121.65,70C41.53,490.93,38.06,492.35,33.86,494.37ZM62,445.73c3.87-1.56,7-2.37,9.6-3.91,25.12-14.56,50.14-29.29,75.25-43.87,3.9-2.26,5.49-5.37,5.42-9.8-.14-9-.33-18,.06-26.94.25-5.65-2.17-8.89-6.8-11.56-10.2-5.9-20.17-12.17-30.3-18.19-4.13-2.45-6.09-5.78-5.87-10.66.26-5.64.11-11.31.19-17,.09-6.26,1.66-7.21,7.08-4.11,10.09,5.75,20.09,11.64,30.16,17.43,1.46.84,3,1.48,4.7,2.27V216.37c-2.48,1.21-4.41,2-6.21,3-25.59,14.72-51.1,29.6-76.81,44.1-5.05,2.85-6.88,6.33-6.86,12q.19,81.86.09,163.7C61.68,441,61.84,442.74,62,445.73Z" transform="translate(-33.13 -28.05)"/></svg>